<?xml version="1.0" encoding="UTF-8"?>
<svg xmlns="http://www.w3.org/2000/svg" xmlns:xlink="http://www.w3.org/1999/xlink" width="20pt" height="19pt" viewBox="0 0 20 19" version="1.1">
<g id="surface1">
<path style=" stroke:none;fill-rule:nonzero;fill:rgb(90.980392%,12.941176%,15.294118%);fill-opacity:1;" d="M 9.984375 18.925781 L 12.765625 4 C 15.417969 4 16.257812 4.277344 16.375 5.410156 C 16.375 5.410156 18.15625 4.777344 19.054688 3.492188 C 15.550781 1.945312 12.03125 1.875 12.03125 1.875 L 9.980469 4.261719 L 9.984375 4.261719 L 7.933594 1.875 C 7.933594 1.875 4.414062 1.945312 0.914062 3.492188 C 1.808594 4.777344 3.589844 5.410156 3.589844 5.410156 C 3.710938 4.277344 4.546875 4 7.179688 4 L 9.984375 18.925781 "/>
<path style=" stroke:none;fill-rule:nonzero;fill:rgb(90.980392%,12.941176%,15.294118%);fill-opacity:1;" d="M 9.984375 1.1875 C 12.8125 1.164062 16.054688 1.605469 19.371094 2.984375 C 19.8125 2.222656 19.929688 1.886719 19.929688 1.886719 C 16.300781 0.515625 12.90625 0.0507812 9.984375 0.0390625 C 7.058594 0.0507812 3.664062 0.515625 0.0390625 1.886719 C 0.0390625 1.886719 0.199219 2.300781 0.597656 2.984375 C 3.914062 1.605469 7.152344 1.164062 9.984375 1.1875 "/>
</g>
</svg>
