<?xml version="1.0" encoding="UTF-8"?>
<svg xmlns="http://www.w3.org/2000/svg" xmlns:xlink="http://www.w3.org/1999/xlink" width="20pt" height="20pt" viewBox="0 0 20 20" version="1.1">
<g id="surface1">
<path style=" stroke:none;fill-rule:nonzero;fill:rgb(100%,60%,0%);fill-opacity:1;" d="M 17.21875 16.148438 C 9.121094 20 4.097656 16.777344 0.878906 14.816406 C 0.683594 14.695312 0.34375 14.847656 0.636719 15.183594 C 1.707031 16.484375 5.21875 19.613281 9.804688 19.613281 C 14.390625 19.613281 17.121094 17.113281 17.460938 16.675781 C 17.800781 16.242188 17.558594 16.003906 17.21875 16.148438 Z M 19.492188 14.890625 C 19.273438 14.609375 18.167969 14.554688 17.472656 14.640625 C 16.777344 14.722656 15.734375 15.148438 15.824219 15.40625 C 15.871094 15.5 15.964844 15.457031 16.445312 15.414062 C 16.921875 15.367188 18.265625 15.195312 18.546875 15.5625 C 18.828125 15.929688 18.117188 17.6875 17.988281 17.96875 C 17.863281 18.253906 18.035156 18.328125 18.273438 18.136719 C 18.503906 17.949219 18.925781 17.460938 19.207031 16.769531 C 19.484375 16.074219 19.65625 15.105469 19.492188 14.890625 Z M 19.492188 14.890625 "/>
<path style=" stroke:none;fill-rule:evenodd;fill:rgb(0%,0%,0%);fill-opacity:1;" d="M 11.773438 8.285156 C 11.773438 9.296875 11.800781 10.140625 11.289062 11.035156 C 10.875 11.765625 10.222656 12.214844 9.492188 12.214844 C 8.496094 12.214844 7.917969 11.457031 7.917969 10.335938 C 7.917969 8.125 9.898438 7.722656 11.773438 7.722656 Z M 14.390625 14.609375 C 14.21875 14.761719 13.972656 14.773438 13.777344 14.671875 C 12.917969 13.957031 12.761719 13.625 12.289062 12.941406 C 10.863281 14.394531 9.859375 14.828125 8.011719 14.828125 C 5.828125 14.828125 4.128906 13.480469 4.128906 10.785156 C 4.128906 8.679688 5.269531 7.246094 6.894531 6.542969 C 8.304688 5.921875 10.269531 5.8125 11.773438 5.644531 L 11.773438 5.308594 C 11.773438 4.691406 11.820312 3.960938 11.460938 3.425781 C 11.140625 2.949219 10.535156 2.75 10.003906 2.75 C 9.015625 2.75 8.132812 3.257812 7.917969 4.308594 C 7.871094 4.542969 7.699219 4.773438 7.46875 4.785156 L 4.949219 4.515625 C 4.738281 4.46875 4.503906 4.296875 4.5625 3.972656 C 5.140625 0.917969 7.898438 0 10.363281 0 C 11.628906 0 13.277344 0.335938 14.273438 1.292969 C 15.535156 2.472656 15.417969 4.042969 15.417969 5.753906 L 15.417969 9.800781 C 15.417969 11.015625 15.921875 11.546875 16.394531 12.203125 C 16.5625 12.4375 16.597656 12.71875 16.386719 12.894531 C 15.859375 13.335938 14.917969 14.15625 14.398438 14.617188 L 14.390625 14.609375 "/>
<path style=" stroke:none;fill-rule:nonzero;fill:rgb(100%,60%,0%);fill-opacity:1;" d="M 17.21875 16.148438 C 9.121094 20 4.097656 16.777344 0.878906 14.816406 C 0.683594 14.695312 0.34375 14.847656 0.636719 15.183594 C 1.707031 16.484375 5.21875 19.613281 9.804688 19.613281 C 14.390625 19.613281 17.121094 17.113281 17.460938 16.675781 C 17.800781 16.242188 17.558594 16.003906 17.21875 16.148438 Z M 19.492188 14.890625 C 19.273438 14.609375 18.167969 14.554688 17.472656 14.640625 C 16.777344 14.722656 15.734375 15.148438 15.824219 15.40625 C 15.871094 15.5 15.964844 15.457031 16.445312 15.414062 C 16.921875 15.367188 18.265625 15.195312 18.546875 15.5625 C 18.828125 15.929688 18.117188 17.6875 17.988281 17.96875 C 17.863281 18.253906 18.035156 18.328125 18.273438 18.136719 C 18.503906 17.949219 18.925781 17.460938 19.207031 16.769531 C 19.484375 16.074219 19.65625 15.105469 19.492188 14.890625 Z M 19.492188 14.890625 "/>
<path style=" stroke:none;fill-rule:evenodd;fill:rgb(0%,0%,0%);fill-opacity:1;" d="M 11.773438 8.285156 C 11.773438 9.296875 11.800781 10.140625 11.289062 11.035156 C 10.875 11.765625 10.222656 12.214844 9.492188 12.214844 C 8.496094 12.214844 7.917969 11.457031 7.917969 10.335938 C 7.917969 8.125 9.898438 7.722656 11.773438 7.722656 Z M 14.390625 14.609375 C 14.21875 14.761719 13.972656 14.773438 13.777344 14.671875 C 12.917969 13.957031 12.761719 13.625 12.289062 12.941406 C 10.863281 14.394531 9.859375 14.828125 8.011719 14.828125 C 5.828125 14.828125 4.128906 13.480469 4.128906 10.785156 C 4.128906 8.679688 5.269531 7.246094 6.894531 6.542969 C 8.304688 5.921875 10.269531 5.8125 11.773438 5.644531 L 11.773438 5.308594 C 11.773438 4.691406 11.820312 3.960938 11.460938 3.425781 C 11.140625 2.949219 10.535156 2.75 10.003906 2.75 C 9.015625 2.75 8.132812 3.257812 7.917969 4.308594 C 7.871094 4.542969 7.699219 4.773438 7.46875 4.785156 L 4.949219 4.515625 C 4.738281 4.46875 4.503906 4.296875 4.5625 3.972656 C 5.140625 0.917969 7.898438 0 10.363281 0 C 11.628906 0 13.277344 0.335938 14.273438 1.292969 C 15.535156 2.472656 15.417969 4.042969 15.417969 5.753906 L 15.417969 9.800781 C 15.417969 11.015625 15.921875 11.546875 16.394531 12.203125 C 16.5625 12.4375 16.597656 12.71875 16.386719 12.894531 C 15.859375 13.335938 14.917969 14.15625 14.398438 14.617188 L 14.390625 14.609375 "/>
</g>
</svg>
