<?xml version="1.0" encoding="UTF-8"?>
<svg xmlns="http://www.w3.org/2000/svg" xmlns:xlink="http://www.w3.org/1999/xlink" width="20pt" height="20pt" viewBox="0 0 20 20" version="1.1">
<g id="surface1">
<path style=" stroke:none;fill-rule:nonzero;fill:rgb(0%,0%,0%);fill-opacity:1;" d="M 7.238281 20 C 4.261719 19.984375 1.796875 13.90625 1.796875 10.8125 C 1.796875 5.757812 5.589844 4.652344 7.050781 4.652344 C 7.710938 4.652344 8.414062 4.910156 9.035156 5.136719 C 9.46875 5.296875 9.914062 5.460938 10.164062 5.460938 C 10.3125 5.460938 10.667969 5.324219 10.976562 5.199219 C 11.640625 4.9375 12.464844 4.609375 13.425781 4.609375 C 13.425781 4.609375 13.429688 4.609375 13.429688 4.609375 C 14.148438 4.609375 16.320312 4.765625 17.628906 6.726562 L 17.933594 7.1875 L 17.492188 7.519531 C 16.863281 7.996094 15.714844 8.863281 15.714844 10.578125 C 15.714844 12.609375 17.015625 13.390625 17.640625 13.769531 C 17.917969 13.933594 18.203125 14.105469 18.203125 14.480469 C 18.203125 14.722656 16.253906 19.96875 13.421875 19.96875 C 12.726562 19.96875 12.238281 19.761719 11.804688 19.578125 C 11.367188 19.390625 10.992188 19.230469 10.367188 19.230469 C 10.050781 19.230469 9.652344 19.382812 9.230469 19.539062 C 8.652344 19.753906 8 20 7.257812 20 Z M 7.238281 20 "/>
<path style=" stroke:none;fill-rule:nonzero;fill:rgb(0%,0%,0%);fill-opacity:1;" d="M 13.722656 0 C 13.796875 2.660156 11.894531 4.503906 9.996094 4.386719 C 9.683594 2.265625 11.894531 0 13.722656 0 Z M 13.722656 0 "/>
</g>
</svg>
