<?xml version="1.0" encoding="UTF-8"?>
<svg xmlns="http://www.w3.org/2000/svg" xmlns:xlink="http://www.w3.org/1999/xlink" width="20pt" height="20pt" viewBox="0 0 20 20" version="1.1">
<g id="surface1">
<path style=" stroke:none;fill-rule:nonzero;fill:rgb(98.431373%,74.117647%,0%);fill-opacity:1;" d="M 4.6875 10 C 4.6875 9.007812 4.960938 8.082031 5.433594 7.285156 L 5.433594 3.914062 L 2.0625 3.914062 C 0.726562 5.652344 0 7.769531 0 10 C 0 12.230469 0.726562 14.347656 2.0625 16.085938 L 5.433594 16.085938 L 5.433594 12.714844 C 4.960938 11.917969 4.6875 10.992188 4.6875 10 Z M 4.6875 10 "/>
<path style=" stroke:none;fill-rule:nonzero;fill:rgb(5.882353%,61.568627%,34.509804%);fill-opacity:1;" d="M 10 15.3125 L 7.65625 17.65625 L 10 20 C 12.230469 20 14.347656 19.273438 16.085938 17.9375 L 16.085938 14.570312 L 12.71875 14.570312 C 11.914062 15.042969 10.984375 15.3125 10 15.3125 Z M 10 15.3125 "/>
<path style=" stroke:none;fill-rule:nonzero;fill:rgb(19.215686%,66.666667%,32.156863%);fill-opacity:1;" d="M 5.433594 12.714844 L 2.0625 16.085938 C 2.328125 16.429688 2.617188 16.757812 2.929688 17.070312 C 4.816406 18.960938 7.328125 20 10 20 L 10 15.3125 C 8.0625 15.3125 6.363281 14.269531 5.433594 12.714844 Z M 5.433594 12.714844 "/>
<path style=" stroke:none;fill-rule:nonzero;fill:rgb(23.529412%,47.45098%,90.196078%);fill-opacity:1;" d="M 20 10 C 20 9.390625 19.945312 8.78125 19.835938 8.1875 L 19.75 7.707031 L 10 7.707031 L 10 12.394531 L 14.746094 12.394531 C 14.285156 13.3125 13.574219 14.058594 12.71875 14.570312 L 16.085938 17.9375 C 16.429688 17.671875 16.757812 17.382812 17.070312 17.070312 C 18.960938 15.183594 20 12.671875 20 10 Z M 20 10 "/>
<path style=" stroke:none;fill-rule:nonzero;fill:rgb(81.176471%,17.647059%,28.235294%);fill-opacity:1;" d="M 13.757812 6.242188 L 14.171875 6.65625 L 17.484375 3.34375 L 17.070312 2.929688 C 15.183594 1.039062 12.671875 0 10 0 L 7.65625 2.34375 L 10 4.6875 C 11.417969 4.6875 12.753906 5.238281 13.757812 6.242188 Z M 13.757812 6.242188 "/>
<path style=" stroke:none;fill-rule:nonzero;fill:rgb(92.156863%,25.490196%,19.607843%);fill-opacity:1;" d="M 10 4.6875 L 10 0 C 7.328125 0 4.816406 1.039062 2.929688 2.929688 C 2.617188 3.242188 2.328125 3.570312 2.0625 3.914062 L 5.433594 7.285156 C 6.363281 5.730469 8.0625 4.6875 10 4.6875 Z M 10 4.6875 "/>
</g>
</svg>
