<?xml version="1.0" encoding="UTF-8"?>
<svg xmlns="http://www.w3.org/2000/svg" xmlns:xlink="http://www.w3.org/1999/xlink" width="20pt" height="20pt" viewBox="0 0 20 20" version="1.1">
<g id="surface1">
<path style=" stroke:none;fill-rule:nonzero;fill:rgb(29.803922%,68.627451%,31.372549%);fill-opacity:1;" d="M 10.625 9.375 L 20 9.375 L 20 0.625 C 20 0.28125 19.71875 0 19.375 0 L 10.625 0 Z M 10.625 9.375 "/>
<path style=" stroke:none;fill-rule:nonzero;fill:rgb(95.686275%,26.27451%,21.176471%);fill-opacity:1;" d="M 9.375 9.375 L 9.375 0 L 0.625 0 C 0.28125 0 0 0.28125 0 0.625 L 0 9.375 Z M 9.375 9.375 "/>
<path style=" stroke:none;fill-rule:nonzero;fill:rgb(12.941176%,58.823529%,95.294118%);fill-opacity:1;" d="M 9.375 10.625 L 0 10.625 L 0 19.375 C 0 19.71875 0.28125 20 0.625 20 L 9.375 20 Z M 9.375 10.625 "/>
<path style=" stroke:none;fill-rule:nonzero;fill:rgb(100%,75.686275%,2.745098%);fill-opacity:1;" d="M 10.625 10.625 L 10.625 20 L 19.375 20 C 19.71875 20 20 19.71875 20 19.375 L 20 10.625 Z M 10.625 10.625 "/>
</g>
</svg>
