<?xml version="1.0" encoding="UTF-8"?>
<svg xmlns="http://www.w3.org/2000/svg" xmlns:xlink="http://www.w3.org/1999/xlink" width="19pt" height="13pt" viewBox="0 0 19 13" version="1.1">
<g id="surface1">
<path style=" stroke:none;fill-rule:nonzero;fill:rgb(90.980392%,12.941176%,15.294118%);fill-opacity:1;" d="M 11.8125 10.304688 L 11.8125 10.832031 L 11.976562 10.832031 L 11.976562 10.480469 L 12.578125 10.480469 L 12.578125 10.832031 L 12.742188 10.832031 L 12.742188 10.304688 L 11.8125 10.304688 M 11.960938 10.136719 L 12.59375 10.136719 C 12.679688 10.117188 12.746094 10.039062 12.765625 9.960938 L 11.789062 9.960938 C 11.804688 10.039062 11.871094 10.117188 11.960938 10.136719 M 11.316406 10.832031 C 11.398438 10.796875 11.441406 10.734375 11.460938 10.660156 L 10.722656 10.660156 L 10.722656 9.960938 L 10.554688 9.960938 L 10.554688 10.832031 L 11.316406 10.832031 M 9.324219 10.132812 L 9.910156 10.132812 C 9.996094 10.105469 10.070312 10.039062 10.089844 9.960938 L 9.160156 9.960938 L 9.160156 10.476562 L 9.921875 10.476562 L 9.921875 10.65625 L 9.324219 10.65625 C 9.230469 10.683594 9.152344 10.75 9.113281 10.832031 L 10.085938 10.832031 L 10.085938 10.304688 L 9.324219 10.304688 L 9.324219 10.132812 M 7.882812 10.132812 L 8.515625 10.132812 C 8.601562 10.117188 8.667969 10.035156 8.6875 9.960938 L 7.710938 9.960938 C 7.726562 10.035156 7.792969 10.117188 7.882812 10.132812 M 7.882812 10.480469 L 8.515625 10.480469 C 8.601562 10.460938 8.667969 10.382812 8.6875 10.304688 L 7.710938 10.304688 C 7.726562 10.382812 7.792969 10.460938 7.882812 10.480469 M 7.882812 10.832031 L 8.515625 10.832031 C 8.601562 10.816406 8.667969 10.734375 8.6875 10.65625 L 7.710938 10.65625 C 7.726562 10.734375 7.792969 10.816406 7.882812 10.832031 M 6.234375 9.960938 C 6.253906 10.039062 6.320312 10.117188 6.40625 10.136719 L 6.671875 10.136719 L 6.6875 10.140625 L 6.6875 10.832031 L 6.851562 10.832031 L 6.851562 10.140625 L 6.867188 10.136719 L 7.136719 10.136719 C 7.222656 10.113281 7.285156 10.039062 7.304688 9.960938 L 6.234375 9.960938 "/>
<path style=" stroke:none;fill-rule:nonzero;fill:rgb(90.980392%,12.941176%,15.294118%);fill-opacity:1;" d="M 9.5 8.238281 L 10.332031 3.441406 C 11.125 3.441406 11.375 3.53125 11.410156 3.894531 C 11.410156 3.894531 11.941406 3.691406 12.210938 3.277344 C 11.164062 2.78125 10.113281 2.757812 10.113281 2.757812 L 9.5 3.523438 L 8.886719 2.757812 C 8.886719 2.757812 7.835938 2.78125 6.789062 3.277344 C 7.058594 3.691406 7.589844 3.894531 7.589844 3.894531 C 7.625 3.53125 7.875 3.441406 8.664062 3.441406 L 9.5 8.238281 "/>
<path style=" stroke:none;fill-rule:nonzero;fill:rgb(90.980392%,12.941176%,15.294118%);fill-opacity:1;" d="M 9.5 2.535156 C 10.34375 2.53125 11.3125 2.671875 12.304688 3.113281 C 12.4375 2.867188 12.46875 2.761719 12.46875 2.761719 C 11.386719 2.320312 10.375 2.171875 9.5 2.167969 C 8.625 2.171875 7.613281 2.320312 6.53125 2.761719 C 6.53125 2.761719 6.578125 2.894531 6.695312 3.113281 C 7.6875 2.671875 8.65625 2.53125 9.5 2.535156 "/>
</g>
</svg>
